<?xml version="1.0" standalone="no"?>
<!DOCTYPE svg PUBLIC "-//W3C//DTD SVG 20010904//EN"
 "http://www.w3.org/TR/2001/REC-SVG-20010904/DTD/svg10.dtd">
<svg version="1.0" xmlns="http://www.w3.org/2000/svg"
 width="200.000000pt" height="200.000000pt" viewBox="0 0 200.000000 200.000000"
 preserveAspectRatio="xMidYMid meet">
<metadata>
Created by potrace 1.14, written by Peter Selinger 2001-2017
</metadata>
<g transform="translate(0.000000,200.000000) scale(0.100000,-0.100000)"
fill="#000000" stroke="none">
<path d="M578 1759 c-30 -17 -20 -45 27 -83 26 -22 45 -46 45 -57 0 -12 -17
-37 -38 -57 -53 -52 -72 -83 -74 -125 -3 -78 67 -94 77 -17 3 22 19 48 48 79
25 25 50 56 56 68 29 57 0 130 -73 179 -39 27 -44 28 -68 13z"/>
<path d="M796 1754 c-25 -24 -19 -40 23 -71 22 -15 45 -38 50 -51 10 -20 5
-29 -38 -75 -57 -62 -71 -86 -71 -126 0 -25 21 -61 36 -61 23 0 44 25 44 50 0
22 12 43 46 78 54 56 73 95 67 135 -6 42 -30 75 -77 108 -45 33 -58 35 -80 13z"/>
<path d="M1022 1758 c-23 -23 -12 -52 33 -86 26 -19 45 -41 45 -52 0 -10 -20
-39 -45 -64 -67 -65 -88 -131 -56 -170 26 -31 58 -12 67 40 3 15 27 52 55 81
27 30 52 66 55 79 15 60 -18 121 -91 165 -35 22 -47 23 -63 7z"/>
<path d="M193 1312 c-12 -2 -33 -16 -47 -32 -24 -29 -24 -32 -23 -210 0 -185
7 -220 42 -220 33 0 40 34 39 200 l-2 163 34 -39 33 -39 1 -125 c0 -69 3 -143
6 -165 16 -120 77 -260 151 -345 39 -44 42 -50 17 -33 -44 31 -105 101 -147
166 -41 63 -70 74 -88 33 -9 -20 -7 -32 17 -72 43 -75 177 -203 263 -251 l75
-41 -100 1 c-55 0 -105 -3 -112 -7 -21 -13 -14 -56 11 -65 29 -11 895 -11 925
0 22 9 28 33 14 57 -5 7 -31 13 -61 13 l-53 2 61 32 c134 72 231 171 293 300
l33 70 48 -3 c108 -7 221 68 259 170 55 152 -47 328 -204 353 -34 6 -102 13
-126 14 -7 1 -17 11 -23 24 -24 52 -7 51 -684 52 -347 0 -640 -1 -652 -3z
m1502 -175 c68 -26 111 -81 121 -156 5 -33 0 -53 -20 -94 -32 -65 -79 -98
-147 -105 l-51 -5 5 44 c3 24 6 108 6 187 l1 142 28 -1 c15 0 41 -6 57 -12z"/>
<path d="M168 809 c-29 -17 -21 -71 13 -90 14 -7 23 -5 39 11 16 16 18 24 9
47 -15 41 -32 49 -61 32z"/>
</g>
</svg>
