<?xml version="1.0" standalone="no"?>
<!DOCTYPE svg PUBLIC "-//W3C//DTD SVG 20010904//EN"
 "http://www.w3.org/TR/2001/REC-SVG-20010904/DTD/svg10.dtd">
<svg version="1.0" xmlns="http://www.w3.org/2000/svg"
 width="200.000000pt" height="200.000000pt" viewBox="0 0 200.000000 200.000000"
 preserveAspectRatio="xMidYMid meet">
<metadata>
Created by potrace 1.14, written by Peter Selinger 2001-2017
</metadata>
<g transform="translate(0.000000,200.000000) scale(0.100000,-0.100000)"
fill="#000000" stroke="none">
<path d="M330 1986 c0 -9 7 -16 16 -16 9 0 14 5 12 12 -6 18 -28 21 -28 4z"/>
<path d="M925 1930 c-4 -6 -3 -16 3 -22 6 -6 12 -6 17 2 4 6 3 16 -3 22 -6 6
-12 6 -17 -2z"/>
<path d="M1300 1899 c-207 -32 -394 -201 -454 -410 -28 -100 -26 -222 8 -319
13 -37 12 -40 -15 -66 -25 -24 -31 -26 -57 -15 -68 28 -174 14 -257 -35 -54
-31 -119 -94 -109 -104 5 -4 34 -15 64 -24 74 -21 126 -54 111 -69 -25 -25 -5
-199 29 -245 27 -37 88 -71 126 -72 16 0 53 -3 82 -6 36 -4 57 -2 68 7 23 19
49 -16 75 -102 12 -38 26 -69 32 -69 18 0 77 73 108 133 37 72 46 140 29 213
-13 54 -13 56 11 80 25 24 26 24 69 9 69 -25 212 -30 293 -11 421 99 580 609
288 927 -126 138 -319 206 -501 178z m230 -45 c87 -25 167 -73 235 -142 211
-214 202 -557 -20 -759 -66 -60 -172 -115 -250 -131 -85 -18 -229 -5 -288 25
-25 13 -31 13 -45 0 -10 -8 -23 -17 -29 -21 -13 -7 -263 233 -263 252 0 5 9
17 20 27 15 14 17 22 9 37 -21 40 -36 106 -38 176 -12 362 325 632 669 536z
m-790 -783 c8 -1 22 -6 30 -11 12 -8 0 -24 -63 -88 l-78 -78 -66 33 c-36 18
-72 33 -79 33 -52 0 59 78 150 105 22 6 51 11 65 9 14 -1 33 -3 41 -3z m233
-150 l127 -129 -19 -23 -18 -23 -26 21 c-33 25 -219 184 -251 214 -9 8 39 69
53 69 3 0 63 -58 134 -129z m-78 -77 c115 -99 133 -119 125 -134 -6 -11 -14
-21 -19 -25 -5 -3 -73 49 -151 116 -135 117 -140 122 -124 140 9 11 21 19 25
19 5 0 69 -52 144 -116z m-120 -21 c17 -15 47 -41 172 -147 21 -18 22 -21 6
-38 -9 -10 -20 -18 -26 -18 -7 0 -112 84 -137 110 -3 3 -37 33 -77 66 l-71 61
21 21 20 21 36 -29 c20 -15 45 -37 56 -47z m-119 -21 c17 -15 79 -67 137 -117
82 -70 103 -94 97 -106 -6 -10 -23 -16 -47 -16 -35 -1 -46 7 -135 95 -90 88
-98 100 -98 134 0 21 3 38 8 38 4 0 21 -13 38 -28z m458 -151 c0 -72 -28 -144
-78 -204 l-23 -28 -21 58 c-12 33 -30 68 -41 79 -19 19 -18 20 62 101 56 57
84 80 92 72 5 -5 10 -41 9 -78z m-429 -22 c52 -52 56 -59 30 -49 -37 14 -63
37 -81 72 -28 54 -21 51 51 -23z"/>
<path d="M1388 1764 c-2 -1 -24 -5 -51 -7 -76 -9 -217 -85 -217 -118 0 -16 26
-10 51 12 41 37 128 71 193 76 79 7 156 -15 225 -62 28 -19 55 -35 61 -35 37
0 -31 62 -105 96 -44 20 -150 46 -157 38z"/>
<path d="M1203 1455 c-18 -8 -33 -15 -33 -17 0 -2 -4 -18 -9 -35 -8 -26 -6
-37 9 -55 14 -17 21 -20 30 -12 8 8 9 14 1 18 -15 9 -14 49 1 64 28 28 78 7
78 -34 0 -12 -3 -24 -7 -26 -5 -2 -44 -40 -88 -86 -57 -59 -76 -85 -68 -93 8
-8 36 14 102 80 73 73 91 97 91 120 0 43 -9 60 -41 76 -33 18 -26 18 -66 0z"/>
<path d="M1266 1262 c-9 -14 23 -45 40 -38 16 6 15 8 -1 26 -19 21 -31 25 -39
12z"/>
<path d="M1311 1175 c-73 -71 -93 -97 -84 -106 8 -8 29 7 85 63 41 41 85 82
99 91 23 15 27 15 47 1 27 -19 28 -45 2 -69 -17 -15 -24 -16 -47 -6 -35 16
-52 -1 -22 -23 33 -23 66 -20 94 9 48 47 22 122 -44 130 -33 4 -41 -2 -130
-90z"/>
<path d="M1011 1096 c-50 -51 -61 -67 -49 -71 11 -4 35 12 73 49 48 47 60 55
83 50 50 -11 52 -13 52 -52 0 -33 -7 -45 -55 -92 -30 -30 -55 -58 -55 -62 0
-22 34 -2 88 51 l61 58 -6 57 c-3 31 -9 58 -12 61 -4 2 -31 6 -61 10 l-55 6
-64 -65z"/>
<path d="M700 1841 c0 -21 -5 -31 -15 -31 -19 0 -20 -16 -1 -27 8 -4 16 -19
18 -33 1 -14 10 -25 18 -25 9 0 15 9 15 25 -1 16 7 28 20 33 20 8 20 8 0 23
-11 8 -20 25 -20 37 0 13 -7 23 -17 25 -14 3 -18 -3 -18 -27z"/>
<path d="M52 1609 c2 -6 8 -10 13 -10 5 0 11 4 13 10 2 6 -4 11 -13 11 -9 0
-15 -5 -13 -11z"/>
<path d="M364 1526 c-27 -27 -34 -42 -34 -73 0 -21 5 -44 12 -51 8 -8 8 -15
-2 -27 -17 -21 -15 -22 55 -28 112 -10 158 36 148 148 -6 68 -8 72 -25 58 -8
-6 -22 -7 -33 -2 -46 18 -86 10 -121 -25z m114 -9 l22 -13 -36 -42 c-20 -23
-45 -47 -56 -53 -48 -26 -67 53 -23 96 26 27 58 31 93 12z m34 -77 c-5 -32
-34 -60 -64 -60 -12 0 -6 12 25 45 23 24 42 44 43 45 0 0 -1 -14 -4 -30z"/>
<path d="M147 1153 c-4 -3 -7 -19 -7 -35 0 -18 -5 -28 -15 -28 -19 0 -20 -16
-1 -27 8 -4 16 -19 18 -33 4 -36 34 -33 30 3 -3 19 1 27 12 27 20 0 21 26 1
34 -9 3 -15 18 -15 36 0 29 -9 38 -23 23z"/>
<path d="M270 706 c0 -9 7 -16 16 -16 17 0 14 22 -4 28 -7 2 -12 -3 -12 -12z"/>
<path d="M1860 706 c0 -9 7 -16 16 -16 9 0 14 5 12 12 -6 18 -28 21 -28 4z"/>
<path d="M1335 620 c-4 -6 -3 -16 3 -22 6 -6 12 -6 17 2 4 6 3 16 -3 22 -6 6
-12 6 -17 -2z"/>
<path d="M457 606 c-49 -18 -61 -28 -112 -100 -90 -127 -146 -247 -138 -295
12 -77 90 -69 253 27 149 88 200 144 200 223 0 104 -105 179 -203 145z m125
-50 c48 -31 60 -92 32 -152 -28 -59 -243 -196 -330 -210 -36 -5 -42 -3 -46 14
-11 43 89 235 166 320 57 62 113 71 178 28z"/>
<path d="M472 513 c-16 -6 -134 -158 -156 -201 -13 -26 -15 -37 -6 -47 17 -20
64 5 168 89 89 72 104 100 78 141 -16 24 -50 32 -84 18z m57 -37 c16 -19 6
-36 -46 -76 -25 -19 -50 -40 -57 -45 -20 -19 -60 -45 -69 -45 -9 0 27 51 91
128 45 54 62 62 81 38z"/>
<path d="M1592 463 c-12 -2 -37 -19 -56 -36 -94 -89 -51 -238 76 -266 123 -28
223 113 163 229 -29 56 -111 89 -183 73z m136 -70 c73 -83 21 -203 -88 -203
-70 0 -123 54 -122 123 1 48 25 85 73 110 50 25 97 15 137 -30z"/>
<path d="M1656 394 c-21 -21 -20 -47 2 -67 24 -22 38 -21 62 3 17 17 19 24 9
43 -21 40 -47 47 -73 21z m42 -35 c-2 -6 -8 -10 -13 -10 -5 0 -11 4 -13 10 -2
6 4 11 13 11 9 0 15 -5 13 -11z"/>
<path d="M1550 324 c0 -17 22 -14 28 4 2 7 -3 12 -12 12 -9 0 -16 -7 -16 -16z"/>
<path d="M1610 235 c0 -8 7 -15 15 -15 8 0 15 7 15 15 0 8 -7 15 -15 15 -8 0
-15 -7 -15 -15z"/>
<path d="M1235 331 c-3 -12 -4 -25 0 -30 3 -6 -4 -15 -17 -22 -20 -11 -21 -12
-4 -24 15 -12 22 -28 25 -58 2 -19 26 1 27 23 1 12 9 27 19 32 15 9 15 11 -4
29 -11 11 -18 25 -15 32 3 8 -2 19 -10 26 -12 10 -16 8 -21 -8z"/>
<path d="M707 213 c-4 -3 -7 -15 -7 -26 0 -11 -8 -26 -17 -33 -17 -13 -17 -15
0 -25 9 -5 17 -21 17 -34 0 -13 5 -27 11 -31 13 -8 29 14 22 32 -2 6 5 19 17
27 20 14 20 15 3 33 -10 10 -19 22 -19 28 -1 6 -2 17 -3 24 -1 13 -14 16 -24
5z"/>
<path d="M1050 44 c0 -9 5 -14 12 -12 18 6 21 28 4 28 -9 0 -16 -7 -16 -16z"/>
<path d="M1800 14 c0 -9 5 -14 12 -12 18 6 21 28 4 28 -9 0 -16 -7 -16 -16z"/>
</g>
</svg>
